<svg width="285" height="302" xmlns="http://www.w3.org/2000/svg" xmlns:xlink="http://www.w3.org/1999/xlink" overflow="hidden"><defs><clipPath id="clip0"><rect x="0" y="0" width="285" height="302"/></clipPath><clipPath id="clip1"><rect x="35" y="30" width="232" height="236"/></clipPath><clipPath id="clip2"><rect x="35" y="30" width="232" height="236"/></clipPath></defs><g clip-path="url(#clip0)"><path d="M538.242 434.003 768.152 434.003M538.242 400.881 768.152 400.881M538.242 366.784 768.152 366.784M538.242 333.661 768.152 333.661M538.242 299.565 768.152 299.565M538.242 266.442 768.152 266.442M538.242 233.319 768.152 233.319" stroke="#C0C0C0" stroke-width="0.324731" stroke-linejoin="round" stroke-miterlimit="10" stroke-dasharray="0.974193 0.324731" fill="none" transform="matrix(1.00188 0 0 1 -503.63 -202.632)"/><path d="M538.242 468.1 768.152 468.1" stroke="#B3B3B3" stroke-width="0.324731" stroke-linejoin="round" stroke-miterlimit="10" fill="none" fill-rule="evenodd" transform="matrix(1.00188 0 0 1 -503.63 -202.632)"/><path d="M538.242 468.1 538.242 471.023M585.003 468.1 585.003 471.023M627.868 468.1 627.868 471.023M674.629 468.1 674.629 471.023M719.442 468.1 719.442 471.023M766.203 468.1 766.203 471.023" stroke="#B3B3B3" stroke-width="0.324731" stroke-linejoin="round" stroke-miterlimit="10" fill="none" transform="matrix(1.00188 0 0 1 -503.63 -202.632)"/><g clip-path="url(#clip1)"><path d="M-8660.58 404.29-8659.61 405.265-8657.66 401.368-8656.68 412.084-8654.74 404.29 538.729 401.368 540.677 405.265 542.625 404.29 543.6 398.445 545.547 392.6 549.445 388.703 551.394 387.729 552.368 392.6 554.316 384.806 555.289 386.755 562.11 391.626 563.084 399.419 565.032 411.11 566.005 408.187 570.876 408.187 572.826 409.161 573.799 410.135 575.748 410.135 576.722 413.058 581.593 412.084 582.568 416.955 584.515 414.032 585.49 406.239 587.439 404.29 592.309 404.29 593.284 405.265 595.232 406.239 596.206 406.239 598.155 409.161 603.026 408.187 604 417.929 605.948 421.826 606.923 423.774 608.871 425.723 614.716 434.49 615.689 432.542 617.638 437.413 619.587 427.671 623.483 436.439 625.432 439.361 626.406 422.8 628.354 412.084 629.329 404.29 634.2 405.265 636.147 386.755 637.123 432.542 639.07 440.336 640.045 433.516 644.916 426.697 645.89 432.542 647.839 428.645 649.787 413.058 650.761 393.574 655.632 389.677 656.606 390.652 658.555 374.09 659.528 362.4 661.477 371.168 666.348 377.013 667.322 376.039 669.271 375.065 670.244 370.194 672.194 374.09 676.09 368.245 678.038 375.065 679.013 391.626 680.961 399.419 682.909 404.29 686.806 407.213 688.755 402.342 689.729 400.394 691.677 396.497 692.652 396.497 697.523 392.6 699.471 392.6 700.445 387.729 702.394 401.368 703.368 407.213 718.955 364.348 719.929 384.806 721.876 390.652 722.852 396.497 724.799 412.084 729.67 409.161 730.645 404.29 732.593 415.981 733.568 418.903 735.516 422.8 739.413 401.368 741.361 417.929 743.31 415.981 744.284 407.213 746.232 415.981 750.129 413.058 752.077 412.084 753.051 405.265 755 409.161 755.973 404.29 762.794 399.419 766.69 387.729" stroke="#00AEE5" stroke-width="3.89677" stroke-linecap="round" stroke-linejoin="round" stroke-miterlimit="10" fill="none" transform="matrix(1.00188 0 0 1 -503.63 -202.632)"/></g><g clip-path="url(#clip2)"><path d="M-8660.58 307.845-8659.61 310.768-8657.66 306.871-8656.68 315.639-8654.74 315.639 538.729 286.413 540.677 287.387 542.625 283.49 543.6 274.723 545.547 268.877 549.445 264.981 551.394 264.981 552.368 275.697 554.316 267.903 555.289 271.8 562.11 279.594 563.084 289.335 565.032 298.103 566.005 292.258 570.876 288.361 572.826 287.387 573.799 289.335 575.748 290.31 576.722 297.129 581.593 301.026 582.568 307.845 584.515 303.948 585.49 299.077 587.439 303.948 592.309 304.923 593.284 307.845 595.232 310.768 596.206 309.794 598.155 310.768 603.026 307.845 604 319.535 605.948 322.458 606.923 324.406 608.871 326.355 614.716 333.174 615.689 330.252 617.638 332.2 619.587 324.406 623.483 333.174 625.432 334.148 626.406 321.484 628.354 304.923 629.329 303.948 634.2 298.103 636.147 300.052 637.123 323.432 639.07 337.071 640.045 330.252 644.916 320.51 645.89 324.406 647.839 317.587 649.787 305.897 650.761 302 655.632 300.052 656.606 293.232 658.555 285.439 659.528 281.542 661.477 285.439 666.348 286.413 667.322 289.335 669.271 291.284 670.244 287.387 672.194 290.31 676.09 283.49 678.038 284.465 679.013 291.284 680.961 296.155 682.909 303.948 686.806 303.948 688.755 299.077 689.729 300.052 691.677 296.155 692.652 296.155 697.523 300.052 699.471 307.845 700.445 302 702.394 305.897 703.368 306.871 718.955 277.645 719.929 301.026 721.876 308.819 722.852 312.716 724.799 330.252 729.67 325.381 730.645 316.613 732.593 326.355 733.568 317.587 735.516 312.716 739.413 287.387 741.361 306.871 743.31 301.026 744.284 292.258 746.232 301.026 750.129 299.077 752.077 302 753.051 297.129 755 295.181 755.973 284.465 762.794 283.49 766.69 270.826" stroke="#7654A3" stroke-width="3.89677" stroke-linecap="round" stroke-linejoin="round" stroke-miterlimit="10" fill="none" transform="matrix(1.00188 0 0 1 -503.63 -202.632)"/></g><text font-family="Arial,Arial_MSFontService,sans-serif" font-weight="400" font-size="12" transform="matrix(0.976027 0 0 0.974194 2.92808 269)">0.00<tspan font-size="12" x="0" y="-33.8742">0</tspan>.50<tspan font-size="12" x="0" y="-68.7748">1</tspan>.00<tspan font-size="12" x="0" y="-102.649">1</tspan>.50<tspan font-size="12" x="0" y="-138.576">2</tspan>.00<tspan font-size="12" x="0" y="-172.45">2</tspan>.50<tspan font-size="12" x="0" y="-207.351">3</tspan>.00<tspan font-size="12" x="0" y="-241.225">3</tspan>.50<tspan font-size="12" x="16.434" y="14.3709">Jan </tspan>22<tspan font-size="12" x="63.784" y="14.3709">Feb </tspan>22<tspan font-size="12" x="107.164" y="14.3709">Mar </tspan>22<tspan font-size="12" x="156.174" y="14.3709">Apr </tspan><tspan font-size="12" x="177.174" y="14.3709">22</tspan><tspan font-size="12" x="200.646" y="14.3709">May </tspan>22<tspan font-size="12" x="250.322" y="14.3709">Jun </tspan><tspan font-size="12" x="273.322" y="14.3709">22</tspan><tspan font-size="12" x="2" y="-262.781">$ </tspan>per gallon</text><path d="M543.6 495.865 567.955 495.865" stroke="#00AEE5" stroke-width="3.89677" stroke-linecap="round" stroke-linejoin="round" stroke-miterlimit="10" fill="none" fill-rule="evenodd" transform="matrix(1.00188 0 0 1 -503.63 -202.632)"/><text font-family="Arial,Arial_MSFontService,sans-serif" font-weight="400" font-size="12" transform="matrix(0.976027 0 0 0.974194 68.2819 297)">SAF</text><path d="M632.252 495.865 657.581 495.865" stroke="#7654A3" stroke-width="3.89677" stroke-linecap="round" stroke-linejoin="round" stroke-miterlimit="10" fill="none" fill-rule="evenodd" transform="matrix(1.00188 0 0 1 -503.63 -202.632)"/><text font-family="Arial,Arial_MSFontService,sans-serif" font-weight="400" font-size="12" transform="matrix(0.976027 0 0 0.974194 157.666 297)">Renewable diesel</text></g></svg>