<svg width="159" height="30" viewBox="0 0 159 30" fill="none" xmlns="http://www.w3.org/2000/svg">
<path d="M0 0.224182H11.6263C13.8408 0.224182 15.5017 0.777815 16.732 1.70054C18.0853 2.8078 18.8235 4.40718 18.8235 6.37566C18.8235 8.6517 17.9008 10.0665 16.0554 10.9277V11.0508C18.5159 11.8505 19.9308 14.065 19.9308 16.7101C19.9308 19.2322 18.9465 21.2007 17.3472 22.431C15.9938 23.4152 14.2714 23.8458 11.9339 23.8458H0V0.224182ZM10.4575 9.45139C11.6878 9.45139 12.6105 8.77473 12.6105 7.35989C12.6105 6.00657 11.6878 5.32991 10.396 5.32991H6.39754V9.38988H10.4575V9.45139ZM11.0111 18.6171C12.426 18.6171 13.4717 17.7559 13.4717 16.218C13.4717 14.5571 12.3645 13.8189 11.0111 13.8189H6.45905V18.6786H11.0111V18.6171Z" fill="white"/>
<path d="M20.9766 0.224182H27.0665V23.9074H20.9766V0.224182Z" fill="white"/>
<path d="M28.3008 15.4798C28.3008 10.128 31.7456 6.56018 37.0974 6.56018C42.4492 6.56018 45.8325 10.1895 45.8325 15.4798C45.8325 20.8316 42.4492 24.3995 37.0974 24.3995C31.7456 24.3995 28.3008 20.8316 28.3008 15.4798ZM39.7425 15.4798C39.7425 12.5271 38.8198 10.6817 36.9744 10.6817C35.1289 10.6817 34.2677 12.5271 34.2677 15.4798C34.2677 18.4325 35.1289 20.3395 36.9744 20.3395C38.8198 20.278 39.7425 18.4325 39.7425 15.4798Z" fill="white"/>
<path d="M46.5078 15.4798C46.5078 10.128 49.9526 6.56018 55.3044 6.56018C60.6562 6.56018 63.978 10.128 63.978 15.4798C63.978 20.8316 60.5947 24.3995 55.2429 24.3995C49.9526 24.3995 46.5078 20.8316 46.5078 15.4798ZM57.9496 15.4798C57.9496 12.5271 57.0268 10.6817 55.1814 10.6817C53.3359 10.6817 52.4747 12.5271 52.4747 15.4798C52.4747 18.4325 53.3359 20.3395 55.1814 20.3395C57.0268 20.278 57.9496 18.4325 57.9496 15.4798Z" fill="white"/>
<path d="M65.207 6.99084H70.8664V9.51294H70.9894C72.0967 7.54447 73.6346 6.49872 76.0951 6.49872C78.2482 6.49872 79.8475 7.54447 80.6472 9.38991H80.7703C82.1236 7.17538 83.9075 6.49872 85.999 6.49872C89.936 6.49872 91.5969 9.38991 91.5969 13.2653V23.8459H85.6914V14.3111C85.6914 12.5887 85.1378 11.4814 83.6615 11.4814C82.1851 11.4814 81.4469 12.8347 81.4469 14.6802V23.8459H75.5415V14.3111C75.5415 12.5887 74.9879 11.4814 73.5115 11.4814C72.0352 11.4814 71.297 12.8347 71.297 14.6802V23.8459H65.207V6.99084Z" fill="white"/>
<path d="M99.0373 21.6313H98.9758V23.8458H93.3164V0.224182H99.2218V8.71321H99.3448C100.452 7.23686 101.99 6.43717 104.143 6.43717C108.388 6.43717 110.848 10.2511 110.848 15.3568C110.848 21.0777 108.203 24.3995 103.774 24.3995C101.928 24.3995 100.022 23.5383 99.0373 21.6313ZM104.758 15.2953C104.758 12.5886 103.774 10.8047 101.99 10.8047C100.145 10.8047 99.0373 12.5886 99.0373 15.2953C99.0373 18.0019 100.206 19.7859 101.99 19.7859C103.774 19.7859 104.758 18.0635 104.758 15.2953Z" fill="white"/>
<path d="M111.527 15.4184C111.527 10.1281 115.034 6.49872 120.078 6.49872C122.6 6.49872 124.507 7.29841 125.983 8.71325C127.952 10.6202 128.813 13.5729 128.751 17.0177H117.433C117.679 19.1092 118.663 20.2165 120.447 20.2165C121.493 20.2165 122.415 19.7244 122.785 18.6171H128.505C127.521 22.4925 124.507 24.3995 120.262 24.3995C115.034 24.338 111.527 20.7701 111.527 15.4184ZM117.433 13.6344H122.846C122.723 11.6044 121.616 10.5587 120.201 10.5587C118.54 10.4972 117.617 11.666 117.433 13.6344Z" fill="white"/>
<path d="M135.456 9.88199H135.579C136.81 7.54443 138.409 6.6217 140.439 6.6217C140.931 6.6217 141.239 6.68322 141.423 6.80625V11.9735H141.3C137.794 11.3583 135.764 13.0192 135.764 16.8332V23.9073H129.797V6.99079H135.456V9.88199Z" fill="white"/>
<path d="M142.038 23.9074H147.759C148.005 24.6456 148.743 25.3222 150.158 25.3222C152.065 25.3222 152.742 24.1535 152.742 22.3695V21.1392H152.619C151.696 22.2465 150.404 23.0462 148.559 23.0462C144.929 23.0462 141.73 20.3396 141.73 15.0493C141.73 10.1896 144.314 6.43723 148.251 6.43723C150.527 6.43723 151.88 7.35995 152.803 8.77478H152.926V6.92934H158.586V21.5698C158.586 24.2765 157.663 26.368 156.248 27.5983C154.772 28.8901 152.68 29.4437 150.281 29.4437C145.729 29.5052 142.592 27.6598 142.038 23.9074ZM152.988 14.8032C152.988 12.7117 152.003 10.9893 150.281 10.9893C148.62 10.9893 147.574 12.4657 147.574 14.8032C147.574 17.0793 148.62 18.6787 150.281 18.6787C151.942 18.6787 152.988 17.0178 152.988 14.8032Z" fill="white"/>
</svg>
