<svg width="192" height="60" viewBox="0 0 192 60" fill="none" xmlns="http://www.w3.org/2000/svg">
<path d="M191.105 40.6351V36.5682H190.205C190.138 37.2683 190.105 37.6016 189.538 37.6016C189.271 37.6016 189.138 37.5349 188.805 37.3349C188.271 37.0349 187.405 36.7349 186.305 36.7349C183.304 36.7349 182.038 38.935 182.038 41.0018C182.038 44.1352 184.305 44.8686 186.338 45.5353C187.638 45.902 189.905 46.202 189.905 47.8687C189.905 48.9021 188.871 49.9022 187.205 49.9022C186.171 49.9022 185.071 49.5021 184.271 48.7354C183.171 47.7354 183.004 46.5687 182.804 45.5686H181.871V50.3688H182.804C182.771 50.1688 182.738 49.5355 183.304 49.5355C183.538 49.5355 183.838 49.7021 184.338 50.0022C184.505 50.1355 185.671 50.7689 187.138 50.7689C190.571 50.7689 192.005 48.0687 192.005 45.9686C192.005 43.0352 189.571 42.3352 188.038 41.9018L187.105 41.6351C186.205 41.4351 185.171 41.0351 184.871 40.8018C184.505 40.4684 184.271 39.9684 184.271 39.5017C184.271 38.5017 185.171 37.635 186.505 37.635C187.305 37.635 188.238 37.9016 188.871 38.3683C189.805 39.0683 189.971 39.8017 190.205 40.6351H191.105Z" fill="white"/>
<path d="M171.801 40.2683C171.901 38.9682 172.101 37.4682 174.334 37.4682C176.401 37.4682 176.501 39.0016 176.568 40.135V41.9684H171.768L171.801 40.2683ZM175.001 49.7687C171.834 49.7687 171.734 46.6019 171.701 45.4018C171.668 44.5351 171.701 43.7018 171.701 42.9017H180.768C180.535 41.4683 180.335 40.0683 179.068 38.7016C177.868 37.4015 176.101 36.7348 174.334 36.7348C170.201 36.7348 167.301 39.7349 167.301 43.7018C167.301 47.5686 170.068 50.7688 174.568 50.7688C178.435 50.7688 179.868 48.1353 180.601 46.7352L179.835 46.3352C179.035 47.6353 177.701 49.7687 175.001 49.7687Z" fill="white"/>
<path d="M160.301 31.2679C160.301 32.5346 161.301 33.568 162.568 33.568C163.868 33.568 164.868 32.5346 164.868 31.2679C164.868 30.0012 163.868 28.9678 162.568 28.9678C161.301 28.9678 160.301 30.0012 160.301 31.2679Z" fill="white"/>
<path d="M158.871 37.9349H161.038V49.5687H158.871V50.3688H167.038V49.5687H165.005V36.8348C163.505 36.9348 162.671 36.9682 161.905 37.0348C161.071 37.0682 160.304 37.1015 158.871 37.1015V37.9349Z" fill="white"/>
<path d="M151.466 49.702C150.265 49.702 149.099 48.6687 148.499 47.5019C147.899 46.3352 147.832 45.0352 147.832 43.7684C147.832 40.235 148.999 39.0682 149.732 38.5015C150.199 38.1682 150.732 37.9015 151.332 37.9015C152.832 37.9015 153.332 39.2016 153.566 40.0683C153.866 41.1683 153.899 42.3017 153.932 43.4684C153.999 47.3019 153.599 49.702 151.466 49.702ZM152.099 36.7348C149.899 36.7348 148.865 38.0015 147.999 39.0349L148.065 36.8348C146.032 37.1015 145.732 37.1015 141.898 37.1015V37.9682H143.965V58.8024H141.898V59.6691H150.565V58.8024H147.999V48.4687C148.865 49.502 149.965 50.7688 152.299 50.7688C154.966 50.7688 156.332 49.1353 156.932 48.3353C158.166 46.6686 158.332 45.1352 158.332 43.9685C158.332 38.8016 154.799 36.7348 152.099 36.7348Z" fill="white"/>
<path d="M134.532 50.1021C133.132 50.1021 132.265 49.2687 131.899 48.502C131.632 48.0686 131.299 47.4019 131.299 43.6351C131.299 40.835 131.365 37.5348 134.499 37.5348C135.765 37.5348 136.699 38.1349 137.232 39.2682C137.399 39.6683 137.599 40.135 137.632 43.5018C137.666 46.6019 137.666 50.1021 134.532 50.1021ZM141.932 43.4684C141.632 38.4349 137.399 36.7348 134.532 36.7348C131.265 36.7348 126.898 38.7682 126.898 43.6684C126.898 47.2353 129.499 50.7354 134.599 50.7354C139.232 50.7354 141.132 47.6353 141.566 46.4019C141.899 45.5019 141.999 44.4351 141.932 43.4684Z" fill="white"/>
<path d="M119.995 36.8349C117.929 37.0349 115.862 37.1016 113.762 37.1016V37.935H115.928V49.5688H113.762V50.3689H122.562V49.5688H119.929V43.5352C119.929 42.2685 120.162 40.5351 121.195 39.135C121.195 39.135 122.195 37.835 122.629 37.835C122.862 37.835 123.095 38.0016 123.095 38.1683C123.095 38.2683 122.995 38.335 122.929 38.4683C122.729 38.735 122.529 39.0684 122.529 39.6351C122.529 40.5684 123.262 41.5351 124.562 41.5351C126.162 41.5351 126.662 40.2684 126.662 39.3684C126.662 38.135 125.862 36.7349 123.896 36.7349C122.595 36.7349 121.662 37.2683 120.929 38.135C120.562 38.535 120.262 39.035 119.929 39.5684L119.995 36.8349Z" fill="white"/>
<path d="M102.663 27.7679C102.13 27.8346 101.496 27.9346 99.7296 28.0346C98.4295 28.1013 97.3295 28.1013 96.4961 28.1013V28.968H98.7629V49.5689H96.4961V50.3689H104.596V49.5689H102.63V43.7686C102.663 41.9685 102.696 39.9351 104.53 38.7017C104.996 38.335 105.63 38.135 106.33 38.135C108.063 38.135 108.23 39.5684 108.197 41.1685V49.5689H106.463V50.3689H114.23V49.5689H112.13V41.0352C112.13 40.0018 112.163 38.9351 111.297 37.9017C110.83 37.4017 109.863 36.735 107.963 36.735C104.93 36.735 103.396 38.5351 102.663 39.4351V27.7679Z" fill="white"/>
<path d="M93.1609 31.768H92.2609C90.4275 35.7682 88.4607 36.7682 87.0273 37.4349V37.9349H89.2941L89.2608 47.002C89.2608 48.4021 89.2941 50.7688 92.4943 50.7688C95.7944 50.7688 96.5611 48.4687 96.9945 46.9687L96.0944 46.7687C95.7277 48.0354 95.2277 49.0688 94.261 49.0688C93.1943 49.0688 93.1609 47.902 93.1609 47.1353V37.9349H95.9277V37.1016H93.1609V31.768Z" fill="white"/>
<path d="M76.4305 36.8349C74.0637 36.9349 72.2303 37.1016 70.2969 37.1016V37.935H72.4636V49.5688H70.2969V50.3689H78.4639V49.5688H76.4305V43.6352C76.4305 42.2018 76.4305 41.6351 76.5305 41.0684C76.9972 39.2684 78.7639 38.2017 79.864 38.2017C81.8307 38.2017 81.8307 39.9017 81.8307 41.6685V49.5688H80.0306V50.3689H87.831V49.5688H85.7642V41.0684C85.7642 39.6684 85.7642 37.7016 83.1974 36.9683C82.3307 36.7349 81.5974 36.7349 81.364 36.7349C80.7307 36.7349 79.8973 36.8349 78.9639 37.2016C77.6639 37.735 77.1305 38.335 76.4305 39.1684V36.8349Z" fill="white"/>
<path d="M63.1285 48.3688C62.7284 48.6688 62.2617 48.9021 61.7284 48.9021C60.595 48.9021 59.5616 48.0354 59.5616 46.4354C59.5616 43.6352 62.3284 43.4686 63.9952 43.3686V45.802C63.9952 46.6354 64.0285 47.6354 63.1285 48.3688ZM69.5287 48.4354C69.2621 48.6355 68.962 48.9355 68.562 48.9355C67.8287 48.9355 67.7953 48.0021 67.7953 47.2687V40.9018C67.7953 39.7684 67.8287 38.235 65.6619 37.3016C64.7285 36.9349 63.6285 36.7349 62.4951 36.7349C59.395 36.7349 56.9282 38.1683 56.9282 40.2017C56.9282 41.2018 57.6615 41.9352 58.6949 41.9352C59.795 41.9352 60.5283 41.1018 60.5283 40.1684C60.5283 39.9351 60.4617 39.7017 60.3617 39.535C60.2617 39.2684 60.0616 39.0684 59.9616 38.835C59.895 38.7017 59.8616 38.6017 59.8616 38.4683C59.8616 38.2017 60.3617 37.5683 61.7951 37.5683C63.8952 37.5683 63.9952 38.635 63.9952 39.9684V42.4685C62.0284 42.6685 59.4283 42.9019 57.6615 44.2019C56.2615 45.202 55.8281 46.502 55.8281 47.5354C55.8281 48.5021 56.2948 50.7355 59.5616 50.7355C62.0284 50.7355 63.3618 49.2688 63.9952 48.5354C64.4285 49.3688 65.1285 50.7355 66.9286 50.7355C68.4954 50.7355 69.4621 49.7355 70.0288 49.1355L69.5287 48.4354Z" fill="white"/>
<path d="M52.9289 27.7679C51.8955 27.9679 50.6288 28.0679 49.4954 28.1013C48.3621 28.1346 47.2953 28.1346 46.6953 28.1346V29.0013H48.9287V49.5689H46.6953V50.3689H55.029V49.5689H52.9289V27.7679Z" fill="white"/>
<path d="M39.3945 31.268C39.3945 32.5347 40.3946 33.5681 41.6946 33.5681C42.9614 33.5681 43.9614 32.5347 43.9614 31.268C43.9614 30.0013 42.9614 28.9679 41.6946 28.9679C40.3946 28.9679 39.3945 30.0013 39.3945 31.268Z" fill="white"/>
<path d="M37.957 37.935H40.1238V49.5689H37.957V50.3689H46.1241V49.5689H44.0906V36.835C42.5906 36.935 41.7572 36.9683 40.9905 37.035C40.1571 37.0683 39.3904 37.1016 37.957 37.1016V37.935Z" fill="white"/>
<path d="M25.8292 27.7679C25.2958 27.8346 24.6625 27.9346 22.8624 28.0346C21.5623 28.1013 20.4956 28.1013 19.6289 28.1013V28.968H21.929V49.5689H19.6289V50.3689H27.7293V49.5689H25.7958V43.7686C25.8292 41.9685 25.8625 39.9351 27.6626 38.7017C28.1293 38.335 28.7626 38.135 29.4627 38.135C31.2294 38.135 31.3628 39.5684 31.3294 41.1685V49.5689H29.596V50.3689H37.363V49.5689H35.2963V41.0352C35.2963 40.0018 35.3296 38.9351 34.4296 37.9017C33.9962 37.4017 32.9962 36.735 31.0961 36.735C28.0626 36.735 26.5625 38.5351 25.8292 39.4351V27.7679Z" fill="white"/>
<path d="M13.3933 38.1684C12.5266 38.8351 11.2265 38.9684 10.6932 38.9684H7.7597V28.8013H10.5932C11.5932 28.8013 12.9933 28.868 13.9266 30.1014C14.5267 30.9347 14.66 32.2014 14.66 33.9349C14.66 36.6683 13.8933 37.8017 13.3933 38.1684ZM17.4601 29.3347C15.7601 28.0679 13.6933 28.0346 11.9599 27.9679H0.359375V28.8013H3.0595V49.5689H0.359375V50.3689H10.7265V49.5689H7.7597V39.9018H12.0599C13.76 39.9018 15.8601 39.7351 17.4935 38.5351C19.5936 37.0017 19.6936 34.8682 19.6936 34.0682C19.6936 32.2681 18.9269 30.4347 17.4601 29.3347Z" fill="white"/>
<path d="M137.599 18.1007C135.498 18.1007 135.398 16.3673 135.398 13.8672C135.398 11.6337 135.398 9.7003 137.565 9.7003C137.832 9.7003 138.832 9.7003 139.332 10.767C139.632 11.467 139.632 12.1671 139.632 14.0005C139.632 16.2673 139.632 18.1007 137.599 18.1007ZM141.199 25.2677C141.865 25.2677 143.465 25.2343 143.465 27.0011C143.465 28.9678 141.199 30.7012 137.432 30.7012C133.932 30.7012 132.732 28.9011 132.732 27.4677C132.732 26.401 133.232 25.8677 133.798 25.2677H141.199ZM143.199 10.967C143.365 10.967 143.399 10.967 143.632 11.267C143.832 11.5337 144.199 11.6671 144.565 11.6671C145.499 11.6671 145.932 11.0004 145.932 10.267C145.932 9.33362 145.232 8.80026 144.432 8.80026C144.032 8.80026 143.565 8.96694 143.165 9.23362C142.565 9.66697 142.399 10.3003 142.265 10.767C141.365 10.0003 140.165 8.96694 137.665 8.96694C134.798 8.96694 131.565 10.567 131.565 14.0338C131.565 16.1673 132.898 17.2006 133.698 17.8673C132.965 18.134 130.465 19.0007 130.465 21.9008C130.465 22.3675 130.532 23.2676 131.332 24.1009C131.932 24.7676 132.398 24.901 133.065 25.001C132.198 25.3343 130.498 25.901 130.498 27.6678C130.498 29.6345 132.865 31.7013 137.432 31.7013C141.765 31.7013 144.999 29.5678 144.999 25.701C144.999 24.7343 144.865 23.9009 144.232 23.0009C143.065 21.3675 141.899 21.4008 139.632 21.4008H134.165C133.098 21.4008 132.198 21.3675 132.198 20.3341C132.198 19.3341 133.432 18.6674 134.398 18.3007C135.065 18.6007 135.932 19.0007 137.665 19.0007C140.865 19.0007 143.565 17.2673 143.565 13.8672C143.565 12.8004 143.199 12.2004 142.865 11.5671C142.965 11.1004 143.032 10.967 143.199 10.967Z" fill="white"/>
<path d="M124.064 9.03371C121.997 9.26705 119.897 9.33372 117.797 9.33372V10.1671H119.964V21.7676H117.797V22.601H126.597V21.7676H123.964V15.734C123.964 14.4673 124.231 12.7672 125.231 11.3671C125.231 11.3671 126.264 10.0671 126.697 10.0671C126.931 10.0671 127.131 10.2338 127.131 10.3671C127.131 10.4671 127.031 10.5671 126.997 10.7004C126.797 10.9671 126.564 11.3005 126.564 11.8672C126.564 12.8005 127.297 13.7339 128.597 13.7339C130.231 13.7339 130.731 12.4672 130.731 11.6005C130.731 10.3338 129.897 8.96704 127.931 8.96704C126.631 8.96704 125.697 9.5004 124.997 10.3338C124.597 10.7671 124.331 11.2671 123.997 11.7672L124.064 9.03371Z" fill="white"/>
<path d="M108.565 12.4672C108.698 11.2005 108.898 9.66707 111.098 9.66707C113.165 9.66707 113.265 11.2338 113.365 12.3339V14.2006H108.531L108.565 12.4672ZM111.765 22.0009C108.598 22.0009 108.498 18.8341 108.465 17.6341C108.431 16.7674 108.465 15.934 108.465 15.1006H117.565C117.332 13.6672 117.098 12.3005 115.832 10.9338C114.631 9.63374 112.898 8.96704 111.098 8.96704C106.998 8.96704 104.098 11.9672 104.098 15.934C104.098 19.7675 106.864 22.9677 111.365 22.9677C115.198 22.9677 116.665 20.3342 117.398 18.9675L116.598 18.5675C115.798 19.8342 114.465 22.0009 111.765 22.0009Z" fill="white"/>
<path d="M95.9307 21.9343C94.7973 21.9343 93.5639 21.2676 92.7972 20.0675C91.9972 18.8342 91.8305 17.0674 91.8305 16.0007C91.8305 15.134 91.9638 13.4006 92.6639 12.1339C93.3305 10.9338 94.6973 9.93377 95.9307 9.93377C97.8974 9.93377 98.2308 11.7338 98.3641 12.3672C98.4974 13.2672 98.5641 14.734 98.5641 15.6674C98.5641 19.1675 98.4641 21.9343 95.9307 21.9343ZM96.564 8.96706C94.1306 8.96706 92.9639 10.2338 91.9972 11.2672V0C90.6638 0.233344 89.197 0.333348 88.5637 0.333348H85.7969V1.23339H88.0303V21.7676H85.7969V22.601H91.9638V20.6009C92.7972 21.6343 94.1306 22.9677 96.6307 22.9677C98.4308 22.9677 100.064 22.401 101.431 20.6342C102.864 18.8342 102.964 17.0341 102.964 16.134C102.964 11.0005 99.4308 8.96706 96.564 8.96706Z" fill="white"/>
<path d="M66.4966 9.03369C64.7299 9.26703 64.0632 9.3337 60.4297 9.3337V10.1671H62.5298V21.7676H60.4297V22.601H68.43V21.7676H66.4633V15.034C66.5633 13.5672 66.63 12.5005 67.3967 11.5671C67.93 10.9338 68.7634 10.4004 69.7301 10.4004C71.4302 10.4004 71.6302 11.9005 71.6302 13.7006V21.7676H69.8968V22.601H77.3638V21.7676H75.4637V15.6006C75.4637 13.9006 75.5304 12.4672 76.6971 11.3338C77.3304 10.7338 78.0971 10.3671 78.7972 10.3671C80.5973 10.3671 80.5973 11.9338 80.5973 13.5672V21.7676H78.8638V22.601H86.4975V21.7676H84.5308V13.4672C84.4308 11.7338 84.3974 8.96702 80.2306 8.96702C77.1304 8.96702 75.9304 10.9004 75.4637 11.6671C74.7303 10.3337 73.9303 8.93369 71.0635 8.93369C68.5967 8.93369 67.43 10.3004 66.4966 11.3671V9.03369Z" fill="white"/>
<path d="M52.7274 22.301C51.3274 22.301 50.4607 21.5009 50.094 20.7342C49.8273 20.3009 49.5273 19.6342 49.5273 15.834C49.5273 13.0339 49.594 9.73374 52.6941 9.73374C53.9608 9.73374 54.9275 10.3338 55.4275 11.5005C55.6276 11.9005 55.7942 12.3339 55.8276 15.7007C55.8609 18.8341 55.8609 22.301 52.7274 22.301ZM60.1611 15.6673C59.8277 10.6671 55.6276 8.96704 52.7274 8.96704C49.4939 8.96704 45.0938 11.0005 45.0938 15.9007C45.0938 19.4675 47.7272 22.9677 52.8274 22.9677C57.4276 22.9677 59.3277 19.8675 59.7611 18.6341C60.1278 17.7008 60.2278 16.6674 60.1611 15.6673Z" fill="white"/>
<path d="M36.5282 22.301C35.1281 22.301 34.2614 21.5009 33.8948 20.7342C33.6281 20.3009 33.3281 19.6342 33.3281 15.834C33.3281 13.0339 33.3614 9.73374 36.4949 9.73374C37.7616 9.73374 38.695 10.3338 39.2283 11.5005C39.395 11.9005 39.595 12.3339 39.6283 15.7007C39.6617 18.8341 39.6617 22.301 36.5282 22.301ZM43.9619 15.6673C43.6285 10.6671 39.395 8.96704 36.5282 8.96704C33.2947 8.96704 28.8945 11.0005 28.8945 15.9007C28.8945 19.4675 31.4946 22.9677 36.6282 22.9677C41.2284 22.9677 43.1285 19.8675 43.5619 18.6341C43.9285 17.7008 43.9952 16.6674 43.9619 15.6673Z" fill="white"/>
<path d="M26.4641 0C25.4307 0.200009 24.164 0.300013 23.0306 0.333348C21.8972 0.333348 20.8305 0.333348 20.2305 0.333348V1.23339H22.4639V21.7676H20.2305V22.601H28.5642V21.7676H26.4641V0Z" fill="white"/>
<path d="M14.1597 20.2675C13.3264 21.6342 12.0263 21.7676 10.9929 21.7676H7.82611V11.4004H10.7596C11.6929 11.4004 13.0263 11.5004 13.9597 12.6338C14.6931 13.5672 14.8264 15.0339 14.8264 16.6673C14.8264 18.0341 14.7264 19.3008 14.1597 20.2675ZM7.82611 1.06666H10.2929C12.893 1.06666 14.2264 1.70002 14.2264 5.9002C14.2264 9.6337 12.893 10.5004 10.4262 10.5004H7.82611V1.06666ZM15.4598 11.2671C14.6931 11.0671 13.9264 11.0004 13.093 10.9004C13.8264 10.8004 14.5597 10.6671 15.2598 10.4671C17.4265 9.80037 18.9599 8.2003 18.9599 5.73353C18.9599 4.13346 18.3932 2.43338 16.3932 1.26666C14.6597 0.299955 12.6263 0.233286 10.7596 0.199951H0.425781V0.999986H3.1259V21.7676H0.425781V22.6009H10.3262C13.6597 22.5676 17.6599 22.5676 19.36 19.3675C19.8933 18.4008 19.9933 17.434 19.9933 16.6673C19.9933 13.4339 17.6599 11.8338 15.4598 11.2671Z" fill="white"/>
</svg>
