<svg width="229" height="34" viewBox="0 0 229 34" fill="none" xmlns="http://www.w3.org/2000/svg">
<mask id="mask0_2033_24819" style="mask-type:luminance" maskUnits="userSpaceOnUse" x="0" y="1" width="19" height="25">
<path d="M0.800781 1.07455H18.4842V25.0387H0.800781V1.07455Z" fill="white"/>
</mask>
<g mask="url(#mask0_2033_24819)">
<path fill-rule="evenodd" clip-rule="evenodd" d="M5.04281 14.4787H9.13824C12.5902 14.4787 14.2156 15.3571 14.2156 17.8628C14.2156 21.0107 11.1689 21.3832 8.96853 21.3832H5.04281V14.4787ZM0.777344 25.0387H9.40887C13.9443 25.0387 18.4804 23.4149 18.4804 18.2013C18.4804 15.1218 16.3138 12.7511 13.3012 12.4139V12.3448C15.7719 11.6011 17.4644 9.80794 17.4644 7.09906C17.4644 2.73268 13.7409 1.07452 10.1192 1.07452H0.777344V25.0387ZM5.04281 4.73026H8.56226C11.7786 4.73026 13.1996 5.74495 13.1996 7.8097C13.1996 9.60415 11.7786 10.8226 8.93511 10.8226H5.04281V4.73026Z" fill="white"/>
</g>
<path fill-rule="evenodd" clip-rule="evenodd" d="M21.2695 25.0387H25.3312V0.507446H21.2695V25.0387Z" fill="white"/>
<path fill-rule="evenodd" clip-rule="evenodd" d="M28.0469 16.915C28.0469 22.027 31.9732 25.4456 36.8822 25.4456C41.7892 25.4456 45.7155 22.027 45.7155 16.915C45.7155 11.8042 41.7888 8.38501 36.8822 8.38501C31.9732 8.38501 28.0469 11.8042 28.0469 16.915ZM32.1086 16.915C32.1086 14.3761 33.9024 12.0411 36.8822 12.0411C39.8601 12.0411 41.6539 14.3761 41.6539 16.915C41.6539 19.4541 39.8601 21.7895 36.8822 21.7895C33.9024 21.7895 32.1086 19.4541 32.1086 16.915Z" fill="white"/>
<path fill-rule="evenodd" clip-rule="evenodd" d="M47.5508 16.9149C47.5508 22.027 51.4772 25.4455 56.3854 25.4455C61.2924 25.4455 65.2191 22.027 65.2191 16.9149C65.2191 11.8041 61.2924 8.38495 56.3854 8.38495C51.4772 8.38495 47.5508 11.8041 47.5508 16.9149ZM51.6121 16.9149C51.6121 14.3761 53.4069 12.041 56.3854 12.041C59.3636 12.041 61.1578 14.3761 61.1578 16.9149C61.1578 19.4541 59.3636 21.7894 56.3854 21.7894C53.4069 21.7894 51.6121 19.4541 51.6121 16.9149Z" fill="white"/>
<path fill-rule="evenodd" clip-rule="evenodd" d="M67.6992 8.79128H71.5571V11.3298H71.6246C72.3359 9.80793 73.8931 8.38535 76.6007 8.38535C79.1058 8.38535 80.8318 9.36694 81.6781 11.3983C82.8625 9.33221 84.5878 8.38535 87.0254 8.38535C91.3583 8.38535 92.8809 11.4654 92.8809 15.3574V25.0387H88.8192V15.8325C88.8192 13.8011 88.2104 12.0411 85.8076 12.0411C83.2687 12.0411 82.3206 14.1399 82.3206 16.2374V25.0387H78.2595V15.3574C78.2595 13.3611 77.4463 12.0411 75.4835 12.0411C72.81 12.0411 71.7612 14.0049 71.7612 16.1712V25.0387H67.6992V8.79128Z" fill="white"/>
<path fill-rule="evenodd" clip-rule="evenodd" d="M96.1719 25.0387H100.031V22.6018H100.099C101.284 24.5643 103.416 25.4456 105.684 25.4456C110.693 25.4456 113.705 21.7218 113.705 16.915C113.705 12.11 110.489 8.38508 105.852 8.38508C102.806 8.38508 101.181 9.80832 100.336 10.8564H100.234V0.507446H96.1719V25.0387ZM109.644 16.915C109.644 19.4542 107.85 21.7896 104.871 21.7896C101.893 21.7896 100.099 19.4542 100.099 16.915C100.099 14.3765 101.893 12.0411 104.871 12.0411C107.85 12.0411 109.644 14.3765 109.644 16.915Z" fill="white"/>
<path fill-rule="evenodd" clip-rule="evenodd" d="M131.99 18.3359V17.2203C131.99 11.5689 128.91 8.38495 124.373 8.38495C119.466 8.38495 115.539 11.8038 115.539 16.9149C115.539 22.027 119.466 25.4455 124.373 25.4455C126.946 25.4455 129.349 24.5298 131.245 22.1951L128.334 19.996C127.319 21.2485 125.998 22.1951 123.968 22.1951C121.7 22.1951 119.872 20.741 119.601 18.3359H131.99ZM119.601 15.2915C119.906 12.9548 121.395 11.4319 123.798 11.4319C126.337 11.4319 127.894 12.9207 127.927 15.2915H119.601Z" fill="white"/>
<path fill-rule="evenodd" clip-rule="evenodd" d="M134.641 8.79128H138.701V11.3642H138.771C139.65 9.50258 141.444 8.38535 143.577 8.38535C144.084 8.38535 144.559 8.48724 145.031 8.62255V12.5489C144.354 12.3792 143.711 12.2445 143.069 12.2445C139.244 12.2445 138.701 15.4606 138.701 16.3406V25.0387H134.641V8.79128Z" fill="white"/>
<path fill-rule="evenodd" clip-rule="evenodd" d="M158.924 8.79128V11.2292H158.856C157.672 9.26537 155.54 8.38535 153.271 8.38535C148.261 8.38535 145.25 12.1099 145.25 16.915C145.25 21.5179 148.465 25.2424 153.339 25.2424C155.37 25.2424 157.468 24.464 158.654 22.8733H158.72V24.0581C158.72 27.2741 157.502 29.5066 153.577 29.5066C151.308 29.5066 149.616 28.661 147.991 27.1709L145.554 30.4889C147.855 32.5199 150.597 33.1617 153.611 33.1617C159.939 33.1617 162.783 29.4394 162.783 23.5836V8.79128H158.924ZM154.118 12.0411C157.063 12.0411 158.924 14.0049 158.924 16.8127C158.924 19.5229 157.097 21.587 154.084 21.587C151.342 21.587 149.312 19.4538 149.312 16.8819C149.312 14.0049 151.275 12.0411 154.118 12.0411Z" fill="white"/>
<path fill-rule="evenodd" clip-rule="evenodd" d="M184.145 25.0388L172.558 6.17688H172.49V25.0388H168.145V0.625122H173.903L185.248 18.9012H185.317V0.625122H189.662V25.0388H184.145Z" fill="white"/>
<path fill-rule="evenodd" clip-rule="evenodd" d="M192.727 25.0388V0.625122H208.899V4.41814H197.071V10.6255H208.278V14.2799H197.071V21.1766H209.52V25.0388H192.727Z" fill="white"/>
<path fill-rule="evenodd" clip-rule="evenodd" d="M216.728 14.7632V25.0388H212.383V0.625122H228.141V4.41814H216.728V11.1078H227.486V14.7632H216.728Z" fill="white"/>
</svg>
